<svg width="278" height="278" viewBox="0 0 278 278" fill="none" xmlns="http://www.w3.org/2000/svg">
<path d="M139 277.889C215.706 277.889 277.889 215.706 277.889 139C277.889 62.2944 215.706 0.111115 139 0.111115C62.2947 0.111115 0.111328 62.2944 0.111328 139C0.111328 215.706 62.2947 277.889 139 277.889Z" fill="white"/>
<path d="M98.4118 143.414C98.4118 141.608 98.4118 139.803 98.4118 138C98.4479 137.808 98.4979 137.619 98.5201 137.425C99.1035 132.558 100.898 128.103 103.851 124.042C107.617 118.864 112.692 115.036 118.537 112.033C127.992 107.175 138.295 104.783 148.887 103.275C153.551 102.611 158.242 102.192 162.956 101.908C167.856 101.614 172.759 101.472 177.667 101.5C178.459 101.506 179.051 101.819 179.39 102.469C179.74 103.142 179.656 103.803 179.151 104.392C178.89 104.697 178.598 104.981 178.301 105.258C176.634 106.825 175.051 108.458 173.548 110.161C168.234 116.181 164.509 122.958 162.212 130.419C161.265 133.492 160.628 136.631 159.767 139.722C158.095 145.733 155.87 151.519 151.801 156.564C148.501 160.656 144.276 163.564 138.99 165.114C133.873 166.614 128.642 166.619 123.409 165.931C118.003 165.219 112.981 163.514 108.612 160.394C108.095 160.025 107.881 160.153 107.615 160.631C106.451 162.711 105.362 164.825 104.434 167.003C103.384 169.478 102.387 171.967 102.215 174.664C102.165 175.478 101.726 176.092 100.942 176.483C100.228 176.483 99.5146 176.461 98.8035 176.492C98.4618 176.506 98.3868 176.431 98.3951 176.117C98.4229 175.117 98.4062 174.117 98.4062 173.117C98.6729 172.075 98.8896 171.019 99.2118 169.992C100.803 164.922 103.331 160.236 106.198 155.7C110.687 148.592 116.034 142.072 122.19 136.128C127.278 131.214 132.84 126.808 139.012 123.078C141.553 121.542 144.176 120.131 146.89 118.869C147.54 118.567 148.145 118.211 148.245 117.461C148.331 116.831 148.103 116.308 147.531 115.933C146.798 115.453 146.078 115.658 145.367 115.986C137.437 119.639 130.348 124.389 123.956 130.042C116.59 136.558 110.359 143.908 105.14 152C104.978 152.25 104.817 152.508 104.617 152.733C103.69 153.781 102.106 153.689 101.367 152.522C100.995 151.936 100.712 151.3 100.417 150.675C99.3285 148.353 98.7674 145.903 98.4062 143.408L98.4118 143.414Z" fill="#2D2A26"/>
<path d="M80.3989 41.3139C87.9073 36.6389 94.0795 36.8806 98.8017 44.4639C103.193 51.5194 101.238 57.7111 93.4656 62.55C91.3906 63.8417 90.0322 64.6889 87.8711 65.9278C89.6461 68.6972 91.2489 71.1028 92.6211 72.9694L84.81 77.8306C82.4239 73.6611 79.9489 69.6 76.1906 63.5639C72.4545 57.5639 69.7406 53.2861 67.1934 49.5333L80.3989 41.3111V41.3139ZM91.485 48.8611C89.6045 45.8417 87.1656 45.7917 83.0906 48.3278C82.1489 48.9139 80.0573 50.2694 78.61 51.2222C80.4434 54.1639 82.2045 56.9944 83.8711 59.675C84.8517 59.0639 86.46 58.1167 88.1961 57.0361C92.685 54.2417 93.5045 52.1083 91.485 48.8639V48.8611Z" fill="#2D2A26"/>
<path d="M111.887 63.0083C110.573 58.1583 108.954 52.7528 107.195 46.875C105.306 40.575 103.765 35.4222 102.018 30.0528L109.979 27.6667C111.381 32.8139 112.837 37.6667 115.004 44.9055C116.929 51.3333 118.218 55.6333 119.851 60.6194L111.89 63.0055L111.887 63.0083Z" fill="#2D2A26"/>
<path d="M139.235 53.8639C138.227 57.2444 135.277 58.975 130.705 59.175C124.977 59.425 121.783 57.6083 121.546 52.1917C121.302 46.6417 125.019 44.1194 132.788 43.7805C135.052 43.6805 137.277 43.6722 138.841 43.8278C138.852 43.0722 138.819 42.3167 138.788 41.6055C138.677 39.075 137.416 37.7055 134.219 37.8472C130.844 37.9944 129.48 39.3444 129.746 42.4028C128.769 42.4028 127.48 42.4583 126.238 42.5111C124.641 42.5805 123.041 42.65 121.938 42.8778C121.258 36.5 124.688 31.5472 133.791 31.1472C142.983 30.7444 146.627 34.7222 146.902 41.0278C147.049 44.4028 147.024 46.85 147.163 50.0472C147.296 53.1111 147.68 56.7861 148.177 57.9667L141.338 58.2667C139.871 58.3305 139.555 58.1667 139.48 56.4805C139.446 55.725 139.449 54.7917 139.455 53.9L139.23 53.8667L139.235 53.8639ZM138.96 47.5583C137.396 47.4055 135.752 47.4305 134.019 47.5083C130.733 47.6528 129.352 48.6472 129.444 50.6889C129.524 52.5528 130.585 53.3972 133.516 53.2694C136.935 53.1194 139.063 50.9361 138.96 47.5583Z" fill="#2D2A26"/>
<path d="M168.281 63.7389C169.498 60.1611 171.14 55.0861 173.048 49.025C174.154 45.5055 173.437 43.7889 170.215 42.775C166.992 41.7611 164.001 42.6833 162.629 47.0528C160.056 55.2361 159.206 58.0889 158.448 60.6472L150.479 58.1416C151.74 54.5778 152.726 51.4417 154.579 45.5472C156.326 39.9944 157.534 35.9944 158.556 32.45L166.57 34.9694C166.034 36.525 165.645 37.6139 165.12 38.9861L165.348 39.15C167.917 36.4639 171.312 36.0389 175.551 37.3722C181.276 39.1722 183.615 42.8417 181.442 49.7528C180.295 53.4 179.637 55.1944 178.917 57.4861C177.904 60.7083 177.051 63.4222 176.298 66.2611L168.284 63.7416L168.281 63.7389Z" fill="#2D2A26"/>
<path d="M194.588 46.7528C195.846 45.0305 196.994 43.3917 197.935 42.0444C198.93 42.7944 200.144 43.6972 201.271 44.4861C202.363 45.25 203.53 46.0639 204.638 46.7305C203.533 48.2361 202.399 49.775 201.194 51.425C203.708 53.1833 206.246 54.9028 208.346 56.3194C207.077 57.9805 205.374 60.2611 204.188 62.0333C202.538 60.825 199.93 58.8944 197.188 56.9222C195.394 59.4111 193.535 62.0694 191.471 65.0194C190.096 66.9861 190.377 68.2139 192.599 69.7667C194.166 70.8611 195.755 71.5389 197.08 71.8139C195.91 73.8722 194.708 76.4472 193.816 78.2639C191.508 77.3 189.966 76.7111 187.563 75.0305C180.971 70.4194 181.224 65.7167 184.383 61.2C186.038 58.8333 188.366 55.5805 190.71 52.2305L188.196 50.4722C189.266 48.9417 191.024 46.4305 192.033 44.9111L194.594 46.7555L194.588 46.7528Z" fill="#2D2A26"/>
<path d="M88.5537 225.822C89.387 226.569 90.0759 227.214 90.5148 227.903C92.5453 230.736 92.387 233.286 90.2453 236.342C86.8787 241.147 82.0009 241.528 75.6286 237.064L60.1953 226.25C63.0648 222.617 65.9231 218.542 69.9759 212.753C74.0287 206.964 77.0148 202.706 79.3203 198.95L94.2814 209.431C100.579 213.842 102.351 218.286 98.7787 223.381C96.687 226.367 94.7175 227.319 91.9037 226.919C90.9814 226.761 89.8842 226.317 88.6537 225.672L88.5509 225.817L88.5537 225.822ZM84.2509 230.025C85.7287 227.914 84.9287 226.267 81.7259 224.022C79.9064 222.747 77.7314 221.278 75.4148 219.708C73.987 221.747 72.6092 223.711 71.4203 225.486C73.9175 227.344 75.9564 228.772 77.7759 230.047C80.9064 232.242 82.5675 232.428 84.2509 230.025ZM89.1287 213.689C87.162 212.311 85.0981 210.919 82.7175 209.361C81.5342 210.975 80.1314 212.975 78.6509 215.086C80.9286 216.792 82.9925 218.183 84.8509 219.483C87.7898 221.486 89.8231 221.447 91.4314 219.156C92.7564 217.264 92.0037 215.703 89.1287 213.689Z" fill="#2D2A26"/>
<path d="M112.968 248.217C110.968 251.122 107.629 251.861 103.215 250.644C97.6875 249.119 95.2097 246.408 96.6513 241.181C98.1291 235.825 102.44 234.572 109.937 236.639C112.124 237.242 114.24 237.919 115.682 238.547C115.926 237.831 116.126 237.103 116.315 236.417C116.99 233.975 116.21 232.283 113.126 231.433C109.871 230.536 108.157 231.4 107.468 234.392C106.537 234.089 105.296 233.747 104.096 233.414C102.554 232.989 101.01 232.564 99.893 232.439C101.21 226.164 105.999 222.506 114.782 224.928C123.651 227.375 125.893 232.281 124.215 238.367C123.318 241.622 122.537 243.944 121.687 247.028C120.871 249.983 120.104 253.6 120.215 254.875L113.618 253.056C112.204 252.667 111.951 252.411 112.401 250.783C112.601 250.056 112.893 249.167 113.174 248.322L112.971 248.219L112.968 248.217ZM114.646 242.133C113.204 241.506 111.632 241.025 109.96 240.564C106.79 239.689 105.171 240.211 104.626 242.181C104.129 243.981 104.879 245.108 107.707 245.889C111.007 246.8 113.704 245.375 114.646 242.133Z" fill="#2D2A26"/>
<path d="M137.259 247.286C137.314 249.019 138.586 249.914 142.806 249.781C146.448 249.667 147.536 248.922 147.492 247.5C147.45 246.167 146.311 245.314 140.7 245C131.964 244.339 129.6 241.256 129.459 236.725C129.286 231.261 133.111 228.428 141.909 228.153C150.706 227.878 154.345 230.519 154.511 235.853C154.523 236.253 154.492 236.653 154.464 237.144C153.528 237.086 151.973 237.089 150.506 237.136C149.173 237.178 147.842 237.264 147.045 237.333L147.031 236.889C146.978 235.2 145.842 234.392 141.975 234.511C138.289 234.628 137.245 235.369 137.284 236.614C137.32 237.769 138.15 238.722 144.303 239.194C152.506 239.872 155.12 242.369 155.275 247.389C155.436 252.497 152.117 255.892 142.923 256.181C132.973 256.492 129.895 253.342 129.734 248.233C129.723 247.878 129.753 247.433 129.742 247.033C130.678 247.092 132.103 247.139 133.7 247.086C134.989 247.044 136.32 246.958 137.25 246.842L137.264 247.286H137.259Z" fill="#2D2A26"/>
<path d="M177.492 249.781C169.378 252.567 163.031 249.953 159.959 241C156.784 231.753 160.47 225.931 168.54 223.158C177.115 220.214 181.473 223.464 183.695 229.936C184.401 231.997 184.823 233.497 185.142 234.703C182.842 235.397 179.02 236.711 175.403 237.953C172.587 238.919 169.828 239.914 167.937 240.564C169.731 244.694 171.956 245.433 175.698 244.147C179.228 242.936 179.862 241.497 179.267 239.492C180.265 239.244 181.412 238.897 182.801 238.419C184.228 237.928 185.309 237.511 186.162 237.125C188.192 242.631 186.951 246.533 177.492 249.781ZM166.592 236.514C170.081 235.456 173.809 234.131 176.906 233.019C176.831 232.669 176.703 232.292 176.545 231.828C175.406 228.508 173.598 227.625 170.151 228.808C166.745 229.978 165.426 231.747 166.595 236.514H166.592Z" fill="#2D2A26"/>
<path d="M199.293 196.503C202.209 200.483 205.143 204.339 210.418 211.269C214.509 216.647 217.301 220.386 220.151 223.914L213.537 228.947L211.679 226.506C211.248 225.939 210.854 225.347 210.432 224.719L210.157 224.872C210.959 228.058 210.284 231.867 206.643 234.639C201.69 238.406 195.712 237.817 189.898 230.178C184.084 222.539 185.362 215.925 190.421 212.075C193.64 209.625 196.526 209.161 199.29 210.297L199.371 210.181C198.332 208.961 197.576 207.969 196.554 206.628C195.101 204.717 193.979 203.169 192.607 201.589L199.293 196.503ZM201.801 213.303C200.059 213.511 198.207 214.306 196.334 215.733C193.151 218.156 192.709 220.95 196.098 225.406C199.409 229.756 202.257 230.047 205.015 227.947C207.879 225.767 208.826 222.533 206.271 219.175L201.801 213.303Z" fill="#2D2A26"/>
</svg>
