<svg width="300" height="300" viewBox="0 0 300 300" fill="none" xmlns="http://www.w3.org/2000/svg">
<path d="M150 288.889C226.706 288.889 288.889 226.706 288.889 150C288.889 73.2944 226.706 11.1111 150 11.1111C73.2947 11.1111 11.1113 73.2944 11.1113 150C11.1113 226.706 73.2947 288.889 150 288.889Z" fill="white"/>
<path d="M165.776 147.944C163.256 147.944 161.215 145.925 161.215 143.442C161.215 140.958 163.254 138.925 165.776 138.925C168.298 138.925 170.343 140.944 170.343 143.442C170.343 145.939 168.295 147.944 165.776 147.944ZM150.001 168.394C138.429 168.394 133.315 160.961 133.106 160.656L136.606 158.356C136.762 158.589 140.776 164.242 150.004 164.242C159.231 164.242 163.245 158.589 163.406 158.35L166.906 160.656C166.69 160.964 161.576 168.394 150.004 168.394M129.67 143.442C129.67 140.944 131.709 138.925 134.231 138.925C136.754 138.925 138.798 140.944 138.798 143.442C138.798 145.939 136.751 147.944 134.231 147.944C131.712 147.944 129.67 145.925 129.67 143.442ZM150.004 112.5C129.029 112.5 112.018 129.294 112.018 150.003C112.018 170.711 129.029 187.5 150.004 187.5C170.979 187.5 187.99 170.711 187.99 150.003C187.99 129.294 170.979 112.5 150.004 112.5Z" fill="#2D2A26"/>
<path d="M51.2941 91.0861C54.5053 92.5055 60.0303 94.9583 66.5303 97.7305C73.3164 100.625 77.8941 102.581 81.9358 104.206L78.3608 112.586C74.7303 112.825 65.4136 114.503 57.8136 115.897C55.2886 116.269 52.808 116.419 50.4136 116.364C53.158 117.294 55.7025 118.233 58.0914 119.206C65.6303 122.375 70.7803 124.572 72.9164 125.339L69.7775 132.697C65.7469 130.931 61.0414 128.825 54.4997 126.033C47.9997 123.261 43.0941 121.167 39.1191 119.617L43.183 110.092C45.8025 109.953 55.7386 107.958 63.1997 106.892C65.2525 106.608 67.5747 106.489 69.7525 106.594C67.2525 105.769 64.7719 104.906 62.5247 103.944C57.2914 101.711 51.008 99.225 48.2414 98.2361L51.2941 91.0833V91.0861Z" fill="#2D2A26"/>
<path d="M93.5587 93.3361C87.2559 99.6056 79.6198 99.3 73.3531 92.9972C67.0531 86.6639 67.7031 79.375 73.7226 73.3889C79.742 67.4028 87.1615 66.6694 93.4587 73.0028C99.7253 79.3056 99.8948 87.0361 93.5587 93.3361ZM78.6726 78.3667C75.9615 81.0611 75.5448 84.1083 79.0865 87.6694C82.5976 91.2 85.8976 91.1139 88.6392 88.3861C91.4448 85.5972 91.4226 82.2972 87.9753 78.8306C84.5281 75.3639 81.417 75.6389 78.6753 78.3639L78.6726 78.3667Z" fill="#2D2A26"/>
<path d="M137.821 69.9305C137.371 68.9 136.116 66.6972 134.521 63.8972C132.11 64.5194 129.657 65.15 127.807 65.6278C126.085 66.0722 123.632 66.7028 121.266 67.3139C121.18 70.3639 121.102 72.9111 121.121 74.2361L112.213 76.5333C113.238 67.6861 114.602 46.4528 114.91 41.4139L127.866 38.075C130.668 42.3555 142.03 60.0805 147.46 67.4472L137.818 69.9305H137.821ZM121.51 60.7778C123.243 60.3778 125.007 59.9222 126.299 59.5889C127.632 59.2444 129.441 58.7778 131.193 58.2805C129.405 55.2528 127.441 52.0889 125.805 49.4805C124.224 47.0889 123.143 45.2083 122.293 43.8666C122.196 45.4528 122.105 47.5861 121.921 50.6166L121.51 60.775V60.7778Z" fill="#2D2A26"/>
<path d="M177.584 37.5972C176.881 42.4805 176.275 47.2889 175.189 55.9305C174.348 62.6333 173.72 67.2583 173.287 71.7722L165.039 70.7361L165.423 67.6944C165.512 66.9889 165.645 66.2889 165.781 65.5444L165.478 65.4611C163.823 68.3 160.673 70.5472 156.131 69.975C149.956 69.2 146.1 64.5917 147.3 55.0667C148.498 45.5417 154.042 41.7139 160.348 42.5083C164.362 43.0139 166.748 44.7 167.925 47.4472L168.064 47.4194C168.175 45.8222 168.331 44.5861 168.542 42.9111C168.842 40.5305 169.123 38.6389 169.253 36.55L177.587 37.5972H177.584ZM167.612 51.35C166.223 50.2805 164.345 49.55 162.006 49.2555C158.037 48.7555 155.764 50.4417 155.067 55.9972C154.384 61.4222 156.214 63.6222 159.653 64.0555C163.225 64.5055 166.164 62.8583 166.692 58.6694L167.612 51.35Z" fill="#2D2A26"/>
<path d="M215.727 54.7528C213.327 59.0639 211.047 63.3389 206.949 71.025C203.772 76.9861 201.535 81.0833 199.519 85.1444L192.185 81.2333L193.627 78.5278C193.963 77.9 194.335 77.2944 194.73 76.6472L194.477 76.4611C191.919 78.5222 188.174 79.4972 184.135 77.3417C178.647 74.4139 176.688 68.7361 181.205 60.2639C185.722 51.7944 192.266 50.1972 197.874 53.1861C201.444 55.0889 203.069 57.5167 203.188 60.5028L203.327 60.525C204.002 59.0722 204.588 57.9722 205.383 56.4833C206.513 54.3667 207.449 52.7 208.316 50.7944L215.727 54.7472V54.7528ZM201.505 64.0417C200.591 62.5472 199.094 61.1944 197.016 60.0861C193.485 58.2028 190.763 58.9667 188.127 63.9083C185.555 68.7333 186.477 71.4417 189.535 73.0722C192.713 74.7667 196.044 74.2778 198.033 70.5528L201.505 64.0417Z" fill="#2D2A26"/>
<path d="M209.643 96.7167C203.893 90.35 203.802 83.4861 210.827 77.1417C218.082 70.5861 224.888 71.6889 230.607 78.0194C236.685 84.7472 235.41 90.0333 230.329 94.6194C228.713 96.0778 227.499 97.0555 226.515 97.825C224.974 95.9833 222.263 92.9833 219.699 90.1472C217.702 87.9361 215.704 85.7917 214.363 84.3055C211.271 87.5778 211.465 89.9167 214.118 92.8528C216.621 95.6222 218.193 95.6389 219.802 94.3055C220.421 95.125 221.193 96.0444 222.177 97.1333C223.191 98.2555 223.996 99.0833 224.688 99.7167C220.424 103.747 216.343 104.139 209.641 96.7194L209.643 96.7167ZM217.56 81.4805C219.904 84.275 222.588 87.1805 224.827 89.5917C225.121 89.3861 225.418 89.1167 225.779 88.7917C228.385 86.4389 228.488 84.4305 226.043 81.725C223.629 79.0528 221.485 78.5361 217.56 81.4833V81.4805Z" fill="#2D2A26"/>
<path d="M261.515 119.025C256.91 120.8 252.424 122.622 244.352 125.9C238.093 128.442 233.752 130.158 229.602 131.986L226.474 124.286L229.315 123.133C229.974 122.867 230.649 122.639 231.365 122.397L231.29 122.092C228.004 122.036 224.504 120.386 222.782 116.144C220.44 110.381 222.574 104.764 231.468 101.153C240.363 97.5416 246.413 100.503 248.804 106.392C250.327 110.139 250.021 113.044 248.202 115.417L248.293 115.522C249.743 114.839 250.896 114.369 252.46 113.733C254.682 112.831 256.471 112.153 258.357 111.242L261.518 119.025H261.515ZM244.643 117.05C244.899 115.317 244.615 113.319 243.729 111.136C242.224 107.431 239.643 106.272 234.454 108.381C229.39 110.439 228.363 113.108 229.668 116.319C231.024 119.656 233.896 121.414 237.807 119.825L244.643 117.047V117.05Z" fill="#2D2A26"/>
<path d="M86.3239 235.3C84.6795 237.783 85.3489 239.506 89.6101 242.331C93.7601 245.081 95.4851 244.889 96.4906 243.372C97.5712 241.742 97.3795 239.856 92.3128 235.433C84.4156 228.442 83.8739 223.869 86.9906 219.164C90.0601 214.533 96.1462 213.556 104.371 219.006C113.299 224.922 114.571 230.083 111.43 234.825C111.11 235.306 110.73 235.8 110.324 236.333C109.571 235.781 108.371 234.933 107.113 234.1C105.852 233.267 104.532 232.444 103.729 231.964C103.938 231.728 104.135 231.433 104.282 231.211C105.338 229.617 105.038 227.819 100.293 224.678C96.6989 222.297 95.0351 222.472 94.1267 223.844C93.2934 225.106 93.1239 226.806 98.5128 231.55C105.629 237.867 106.888 242.486 103.477 247.636C100.138 252.675 94.2739 253.8 85.7906 248.178C76.6017 242.089 74.9851 236.806 78.2739 231.842C78.6656 231.25 79.0712 230.717 79.5628 230.136C80.2434 230.8 81.4906 231.733 82.7878 232.592C84.1962 233.525 85.5184 234.347 86.5656 234.936L86.3212 235.306L86.3239 235.3Z" fill="#2D2A26"/>
<path d="M141.482 240.361C140.455 243.953 139.666 247.147 138.171 253.186C136.782 258.794 135.78 262.85 135.01 266.506L126.899 264.497C127.338 262.911 127.657 261.8 128.055 260.389L127.849 260.292C125.549 263.111 122.274 263.764 117.871 262.675C112.132 261.256 109.43 257.564 110.999 251.219C111.982 247.25 112.527 245.233 113.146 242.731C113.946 239.494 114.641 236.692 115.207 233.853L123.405 235.883C122.335 239.647 120.957 245.031 119.388 251.372C118.524 254.867 119.455 256.472 122.646 257.261C125.882 258.061 128.918 256.892 130.041 252.361C132.146 243.861 132.807 241.003 133.416 238.361L141.482 240.358V240.361Z" fill="#2D2A26"/>
<path d="M165.711 245.008C168.789 245.564 170.033 246.622 170.23 249.106C170.564 253.269 167.244 256.344 157.986 257.089C156.436 257.214 155.055 257.236 153.8 257.158C153.539 257.803 153.461 258.478 153.511 259.1C153.564 259.764 154.175 260.161 155.372 260.064C159.403 259.739 162.783 259.067 165.397 258.858C171.022 258.408 173.616 260.161 173.958 264.414C174.35 269.286 171.291 272.297 159.597 273.236C147.28 274.225 145.355 272.461 145.141 269.803C144.975 267.719 146.561 266.389 149.605 265.431L149.591 265.253C147.278 264.769 146.38 263.594 146.261 262.086C146.069 259.694 148.072 257.972 150.786 256.819L150.775 256.686C146.903 255.658 145.097 253.172 144.819 249.717C144.336 243.692 148.241 240.122 156.569 239.456C157.544 239.378 165.747 238.808 171.728 238.328C171.755 239.217 172.086 243.339 172.18 244.533C170.764 244.647 168.228 244.717 165.689 244.742L165.711 245.008ZM151.847 248.931C152.008 250.925 153.791 252.031 157.689 251.717C161.675 251.397 163.216 250.025 163.055 248.031C162.9 246.081 161.147 244.794 157.158 245.117C153.261 245.431 151.689 246.983 151.847 248.931ZM166.53 265.231C166.466 264.433 165.944 264.028 164.083 264.178C161.028 264.422 156.941 265.197 154.15 265.422C153.708 265.458 153.264 265.494 152.861 265.481C152.536 265.864 152.378 266.144 152.408 266.497C152.522 267.914 153.811 268.436 159.261 267.997C164.844 267.55 166.647 266.692 166.53 265.228V265.231Z" fill="#2D2A26"/>
<path d="M197.154 251.897C197.382 255.417 195.215 258.064 190.995 259.839C185.709 262.061 182.084 261.464 179.982 256.467C177.829 251.344 180.44 247.692 187.609 244.678C189.698 243.8 191.782 243.019 193.301 242.622C193.048 241.908 192.757 241.211 192.482 240.556C191.501 238.219 189.843 237.375 186.893 238.614C183.779 239.922 182.968 241.661 184.279 244.439C183.359 244.778 182.173 245.275 181.026 245.758C179.551 246.378 178.076 246.997 177.12 247.594C174.27 241.85 175.77 236.011 184.17 232.481C192.651 228.914 197.448 231.381 199.895 237.2C201.204 240.314 202.029 242.619 203.27 245.569C204.459 248.397 206.093 251.711 206.968 252.644L200.659 255.297C199.307 255.867 198.951 255.822 198.298 254.267C198.007 253.569 197.684 252.692 197.382 251.856L197.159 251.9L197.154 251.897ZM194.707 246.081C193.187 246.478 191.654 247.075 190.057 247.747C187.023 249.022 186.076 250.433 186.868 252.319C187.59 254.039 188.879 254.464 191.582 253.325C194.737 251.997 195.976 249.211 194.707 246.081Z" fill="#2D2A26"/>
<path d="M208.175 225.819C206.441 221.586 207.516 218.489 210.625 216.114C211.605 215.347 212.73 214.692 213.797 214.253C214.691 215.756 216.739 218.947 218.019 220.656C216.925 221.061 215.766 221.742 214.68 222.592C211.278 225.311 211.03 227.592 214.866 232.492C217.278 235.572 220.297 239.358 222.275 241.594L215.416 246.964C213.158 243.933 210.691 240.783 207.105 236.2C203.6 231.719 201.216 228.675 198.816 225.756L204.45 221.344C205.475 222.8 206.564 224.261 207.905 225.975L208.178 225.819H208.175Z" fill="#2D2A26"/>
</svg>
