<svg width="300" height="300" viewBox="0 0 300 300" fill="none" xmlns="http://www.w3.org/2000/svg">
<path d="M150 288.889C226.706 288.889 288.889 226.706 288.889 150C288.889 73.2944 226.706 11.1111 150 11.1111C73.2947 11.1111 11.1113 73.2944 11.1113 150C11.1113 226.706 73.2947 288.889 150 288.889Z" fill="white"/>
<path d="M191.877 127.747C189.027 118.628 181.108 112.5 172.166 112.5C166.472 112.5 160.73 114.733 156.402 118.628C152.616 122.036 150.236 127.769 150.111 128.083C150.069 128.194 150.036 128.286 150 128.372C149.95 128.275 149.902 128.156 149.855 128.014C149.758 127.767 147.38 122.036 143.586 118.619C139.266 114.733 133.522 112.5 127.83 112.5C118.883 112.5 110.972 118.628 108.119 127.747C103.083 143.878 114.416 163.725 138.441 180.833C141.694 183.144 147.389 186.714 147.63 186.861C148.283 187.275 149.122 187.5 149.994 187.5C150.866 187.5 151.714 187.275 152.366 186.861C152.608 186.714 158.302 183.144 161.555 180.825C185.572 163.725 196.911 143.878 191.877 127.744V127.747Z" fill="#2D2A26"/>
<path d="M81.9221 52.7972C84.1221 55.2472 87.8971 59.4722 92.386 64.3444C97.0721 69.4333 100.233 72.8639 103.061 75.8111L96.7776 81.5972C93.5832 80.4055 84.9721 78.25 77.9388 76.5166C75.636 75.8611 73.4582 75.0361 71.436 74.0667C73.4249 75.9167 75.236 77.7028 76.9054 79.4528C82.1304 85.0639 85.686 88.925 87.2165 90.4028L81.6999 95.4833C78.936 92.4222 75.7249 88.8083 71.2082 83.9055C66.7193 79.0333 63.3332 75.3555 60.5332 72.4972L67.6749 65.9222C69.9665 66.8139 79.2276 68.9333 86.0165 70.8944C87.8804 71.4417 89.9138 72.2333 91.7332 73.1639C89.9138 71.4972 88.1276 69.8 86.5749 68.1167C82.961 64.1944 78.5499 59.6472 76.5638 57.7389L81.9276 52.8L81.9221 52.7972Z" fill="#2D2A26"/>
<path d="M118.536 64.3778C118.792 67.675 116.792 70.1833 112.858 71.8944C107.93 74.0417 104.525 73.525 102.494 68.8639C100.414 64.0889 102.819 60.6333 109.503 57.7222C111.45 56.875 113.394 56.1194 114.814 55.7278C114.569 55.0611 114.286 54.4111 114.019 53.8C113.072 51.6222 111.508 50.85 108.755 52.0472C105.853 53.3111 105.111 54.9528 106.375 57.5389C105.519 57.8667 104.411 58.35 103.342 58.8139C101.967 59.4139 100.592 60.0111 99.7027 60.5805C96.9638 55.2278 98.2999 49.7389 106.13 46.3278C114.039 42.8833 118.567 45.1389 120.928 50.5639C122.192 53.4667 122.992 55.6194 124.192 58.3694C125.339 61.0056 126.911 64.0917 127.742 64.9583L121.858 67.5194C120.597 68.0694 120.264 68.0333 119.63 66.5806C119.347 65.9306 119.036 65.1111 118.742 64.3305L118.533 64.375L118.536 64.3778ZM116.175 58.9528C114.755 59.3444 113.325 59.9222 111.836 60.5694C109.008 61.8 108.136 63.1361 108.9 64.8917C109.6 66.4972 110.811 66.8778 113.33 65.7806C116.272 64.5 117.4 61.8722 116.175 58.9528Z" fill="#2D2A26"/>
<path d="M127.311 39.725C127.041 37.7417 126.749 35.8917 126.508 34.3667C127.666 34.225 129.072 34.0472 130.349 33.8472C131.586 33.6528 132.902 33.4444 134.083 33.175C134.313 34.9111 134.552 36.6861 134.808 38.5861C137.647 38.1389 140.48 37.65 142.822 37.2389C143.044 39.1861 143.377 41.8333 143.73 43.8028C141.83 44.0611 138.813 44.45 135.677 44.9028C136.083 47.75 136.558 50.7528 137.083 54.0889C137.433 56.3111 138.422 56.9583 140.93 56.5611C142.699 56.2833 144.213 55.7055 145.286 55.0305C145.836 57.1805 146.697 59.7 147.277 61.5083C145.091 62.3583 143.669 62.9639 140.952 63.3917C133.502 64.5667 130.613 61.225 129.811 56.1194C129.388 53.4444 128.847 49.7333 128.249 45.9472L125.411 46.3944C125.138 44.6667 124.691 41.825 124.383 40.1444L127.311 39.725Z" fill="#2D2A26"/>
<path d="M176.662 39.3055C176.156 42.7722 175.82 45.8361 175.187 51.6361C174.598 57.0194 174.17 60.9139 173.915 64.4055L166.129 63.5528C166.337 62.025 166.498 60.9528 166.687 59.5889L166.484 59.525C164.698 62.4305 161.737 63.4472 157.512 62.9861C152.003 62.3833 149.031 59.2917 149.698 53.2028C150.115 49.3917 150.37 47.45 150.634 45.0472C150.973 41.9417 151.27 39.2472 151.44 36.5417L159.309 37.4028C158.787 41.0333 158.178 46.2083 157.512 52.2944C157.145 55.65 158.209 57.0222 161.276 57.3583C164.381 57.6972 167.059 56.2305 167.534 51.8833C168.428 43.725 168.684 40.9861 168.92 38.4555L176.665 39.3028L176.662 39.3055Z" fill="#2D2A26"/>
<path d="M190.541 49.9722C193.149 46.5694 196.166 45.975 199.558 47.3694C200.641 47.8 201.702 48.4028 202.563 49.0583C201.769 50.4916 200.152 53.6583 199.374 55.5028C198.53 54.8083 197.43 54.1916 196.23 53.7139C192.419 52.2444 190.458 53.1222 188.302 58.5444C186.947 61.9527 185.308 66.1889 184.433 68.8444L176.844 65.8277C178.23 62.5666 179.613 59.0833 181.63 54.0111C183.599 49.0555 184.938 45.6861 186.169 42.3639L192.402 44.8416C191.708 46.3583 191.038 47.9305 190.285 49.8278L190.541 49.975V49.9722Z" fill="#2D2A26"/>
<path d="M208.955 78.2833C206.233 80.1611 203.061 79.6917 199.602 77.15C195.272 73.9667 194.005 70.7639 197.016 66.6667C200.099 62.4694 204.297 62.8111 210.172 67.1305C211.883 68.3889 213.513 69.6889 214.566 70.7222C215.019 70.175 215.438 69.6055 215.833 69.0667C217.238 67.1528 217.122 65.4111 214.705 63.6361C212.152 61.7611 210.363 61.9444 208.761 64.3361C208.047 63.7583 207.072 63.0444 206.133 62.3528C204.924 61.4639 203.716 60.575 202.777 60.0944C206.027 55.0361 211.447 53.4333 218.33 58.4917C225.28 63.6 225.605 68.6472 222.102 73.4139C220.227 75.9667 218.769 77.7389 216.994 80.1555C215.291 82.4722 213.411 85.3833 213.08 86.5361L207.908 82.7361C206.799 81.9222 206.663 81.6139 207.602 80.3389C208.022 79.7667 208.574 79.0889 209.099 78.4417L208.955 78.2861V78.2833ZM212.458 73.5139C211.405 72.4833 210.188 71.5361 208.88 70.575C206.397 68.75 204.802 68.6639 203.669 70.2083C202.633 71.6194 202.911 72.8583 205.127 74.4861C207.713 76.3861 210.552 76.0417 212.461 73.5139H212.458Z" fill="#2D2A26"/>
<path d="M214.676 89.1611C218.287 86.1361 222.251 82.6305 226.559 78.8222C231.179 74.7361 234.956 71.3972 238.837 67.7972L243.998 73.6361C240.17 76.8555 236.612 80 231.304 84.6944C226.59 88.8611 223.437 91.65 219.837 95L214.676 89.1611Z" fill="#2D2A26"/>
<path d="M36.834 178.781C41.2284 177.628 45.509 176.375 51.8673 174.519C58.2673 172.65 62.5451 171.4 66.8312 170.017L69.1562 177.975C64.8812 179.094 60.5618 180.356 54.1618 182.225C47.8034 184.083 43.5229 185.333 39.159 186.739L36.834 178.781Z" fill="#2D2A26"/>
<path d="M50.5957 211.303C53.7263 209.644 58.1096 207.236 63.3069 204.325C66.3235 202.636 66.9374 201.003 65.3902 198.239C63.843 195.475 61.2069 194.183 57.4624 196.281C50.4457 200.211 48.0319 201.611 45.8707 202.869L42.043 196.036C45.193 194.414 47.8846 192.908 52.9374 190.075C57.6985 187.408 61.0957 185.456 64.0707 183.694L67.9207 190.564C66.5541 191.281 65.5902 191.775 64.3485 192.372L64.3985 192.631C67.8791 192.447 70.468 194.342 72.5041 197.975C75.2541 202.883 74.4902 206.892 68.5652 210.211C65.4402 211.964 63.8346 212.767 61.8735 213.867C59.1096 215.414 56.7846 216.717 54.4457 218.172L50.5957 211.303Z" fill="#2D2A26"/>
<path d="M88.2093 225.464C89.7399 227.964 89.776 229.494 88.1621 231.183C85.4566 234.017 81.2316 233.611 74.9371 227.594C73.8816 226.586 73.0066 225.633 72.2788 224.708C71.6649 224.928 71.1427 225.294 70.7399 225.717C70.3093 226.169 70.4121 226.844 71.226 227.622C73.9677 230.242 76.5455 232.186 78.3232 233.886C82.1482 237.542 82.5399 240.45 79.776 243.342C76.6093 246.656 72.5955 246.394 64.6427 238.794C56.2677 230.792 56.301 228.344 58.026 226.539C59.3788 225.122 61.301 225.403 63.8705 226.936L63.9843 226.817C62.8788 224.897 63.1427 223.536 64.1232 222.511C65.6788 220.883 68.1316 221.211 70.6343 222.392L70.7205 222.3C69.0232 218.95 69.6371 216.136 71.8816 213.786C75.7955 209.689 80.7288 210.194 86.3927 215.606C87.0566 216.239 92.5705 221.625 96.6399 225.511C96.0343 226.086 93.3566 228.886 92.5788 229.7C91.6149 228.778 89.9843 227.047 88.3816 225.286L88.2093 225.467V225.464ZM74.5705 238.653C75.0899 238.111 75.0455 237.492 73.7788 236.283C71.701 234.297 68.6093 231.922 66.7121 230.108C66.4121 229.819 66.1093 229.533 65.8677 229.244C65.3955 229.256 65.1038 229.322 64.8732 229.561C63.951 230.525 64.3927 231.753 68.0982 235.294C71.8955 238.922 73.6205 239.647 74.5705 238.653ZM76.8149 218.208C75.5205 219.564 75.8593 221.5 78.5093 224.033C81.2205 226.625 83.1427 226.844 84.4371 225.489C85.7038 224.164 85.5093 222.133 82.7982 219.544C80.1482 217.011 78.0816 216.881 76.8149 218.208Z" fill="#2D2A26"/>
<path d="M102.256 234.319C105.281 231.283 108.351 231.083 111.534 232.906C112.554 233.472 113.529 234.206 114.295 234.969C113.323 236.289 111.309 239.219 110.298 240.947C109.551 240.15 108.54 239.394 107.412 238.767C103.823 236.817 101.765 237.433 98.9258 242.531C97.1425 245.733 94.9675 249.722 93.7564 252.242L86.623 248.269C88.4175 245.217 90.2425 241.939 92.898 237.172C95.4925 232.514 97.2564 229.347 98.9064 226.211L104.767 229.475C103.884 230.892 103.017 232.364 102.023 234.147L102.256 234.325V234.319Z" fill="#2D2A26"/>
<path d="M120.028 263.342C112.259 261.264 108.687 255.911 110.981 247.336C113.348 238.481 119.264 235.878 126.992 237.944C135.203 240.139 136.895 244.947 135.237 251.147C134.709 253.119 134.253 254.506 133.87 255.614C131.717 254.953 128.056 253.972 124.592 253.047C121.895 252.325 119.228 251.656 117.417 251.172C116.653 255.325 117.998 257.064 121.581 258.022C124.962 258.925 126.209 258.139 126.795 256.267C127.698 256.594 128.775 256.925 130.103 257.281C131.473 257.647 132.528 257.886 133.395 258.031C132.095 263.375 129.084 265.764 120.028 263.342ZM118.489 247.317C121.759 248.319 125.35 249.239 128.339 249.994C128.467 249.683 128.562 249.322 128.681 248.878C129.531 245.697 128.587 244.064 125.287 243.183C122.025 242.311 120.075 242.997 118.489 247.317Z" fill="#2D2A26"/>
<path d="M165.183 233.975C165.247 238.6 165.394 243.139 165.655 251.303C165.858 257.633 165.956 262.006 166.219 266.25L158.43 266.5L158.339 263.628C158.317 262.961 158.339 262.294 158.356 261.583L158.064 261.55C156.947 264.419 154.361 266.964 150.072 267.1C144.242 267.286 139.997 263.589 139.708 254.592C139.419 245.597 143.992 241.239 149.947 241.05C153.736 240.928 156.194 242.142 157.686 244.511L157.811 244.467C157.681 242.969 157.642 241.806 157.592 240.222C157.519 237.972 157.503 236.181 157.317 234.228L165.186 233.975H165.183ZM157.969 248.172C156.528 247.386 154.681 246.986 152.472 247.056C148.725 247.175 146.867 249.069 147.036 254.317C147.2 259.439 149.217 261.208 152.464 261.103C155.836 260.994 158.317 259.039 158.192 255.083L157.969 248.169V248.172Z" fill="#2D2A26"/>
<path d="M172.222 236.683C168.386 237.661 167.503 236.725 167.194 235.514C166.864 234.222 167.336 233.2 171.089 232.242C174.803 231.294 175.705 231.967 176.036 233.258C176.344 234.469 176.017 235.714 172.222 236.683ZM175.194 264.006C174.286 260.108 173.286 256.194 172.042 251.308C170.867 246.706 169.953 243.283 168.953 239.539L176.422 237.633C177.269 241.458 178.125 244.811 179.361 249.656C180.772 255.186 181.575 258.336 182.664 262.1L175.194 264.006Z" fill="#2D2A26"/>
<path d="M201.862 255.142C194.64 258.681 188.429 256.989 184.526 249.019C180.493 240.789 183.243 234.939 190.426 231.419C198.059 227.681 202.493 230.194 205.315 235.956C206.212 237.789 206.779 239.136 207.218 240.219C205.159 241.133 201.756 242.803 198.537 244.378C196.029 245.606 193.579 246.853 191.895 247.678C194.045 251.311 196.204 251.739 199.534 250.106C202.676 248.567 203.098 247.153 202.312 245.358C203.209 245.011 204.237 244.553 205.473 243.95C206.745 243.328 207.701 242.814 208.448 242.353C210.981 247.236 210.279 251.014 201.859 255.139L201.862 255.142ZM190.173 244.072C193.295 242.681 196.609 241.011 199.359 239.619C199.251 239.303 199.084 238.964 198.884 238.553C197.437 235.597 195.651 234.986 192.584 236.489C189.554 237.975 188.531 239.772 190.176 244.072H190.173Z" fill="#2D2A26"/>
<path d="M233.094 232.042C230.744 229.392 227.369 225.703 223.311 221.339C220.955 218.806 219.225 218.597 216.905 220.753C214.586 222.908 213.953 225.775 216.875 228.919C222.353 234.808 224.283 236.822 226.016 238.625L220.28 243.961C217.961 241.283 215.861 239.025 211.917 234.783C208.2 230.786 205.5 227.947 203.086 225.472L208.853 220.108C209.872 221.267 210.58 222.086 211.455 223.15L211.694 223.042C210.694 219.703 211.922 216.742 214.972 213.903C219.092 210.072 223.166 209.867 227.791 214.839C230.233 217.464 231.392 218.831 232.925 220.478C235.08 222.797 236.897 224.75 238.861 226.678L233.094 232.042Z" fill="#2D2A26"/>
<path d="M223.648 204.664C221.981 203.558 220.398 202.553 219.098 201.725C219.759 200.764 220.553 199.589 221.245 198.497C221.914 197.442 222.628 196.317 223.206 195.25C224.662 196.222 226.15 197.219 227.748 198.281C229.289 195.853 230.795 193.403 232.031 191.378C233.639 192.497 235.848 193.997 237.559 195.033C236.498 196.631 234.795 199.153 233.064 201.803C235.47 203.378 238.037 205.008 240.887 206.817C242.787 208.022 243.923 207.708 245.287 205.561C246.248 204.047 246.814 202.533 247.017 201.281C248.992 202.289 251.456 203.308 253.195 204.067C252.389 206.269 251.9 207.736 250.428 210.058C246.387 216.425 241.97 216.386 237.609 213.617C235.323 212.167 232.178 210.119 228.942 208.067L227.4 210.494C225.923 209.556 223.495 208.017 222.031 207.136L223.65 204.661L223.648 204.664Z" fill="#2D2A26"/>
<path d="M251.609 189.036C253.15 189.55 254.35 188.719 255.603 184.964C256.684 181.722 256.381 180.522 255.117 180.103C253.931 179.708 252.812 180.431 250.714 185.267C247.3 192.736 243.823 193.817 239.789 192.472C234.928 190.85 233.675 186.569 236.287 178.742C238.898 170.914 242.403 168.569 247.145 170.153C247.5 170.272 247.842 170.431 248.264 170.614C247.909 171.417 247.409 172.789 246.973 174.092C246.578 175.278 246.22 176.475 246.023 177.2L245.628 177.069C244.125 176.569 243.045 177.306 241.898 180.744C240.803 184.025 241.12 185.186 242.225 185.556C243.253 185.897 244.362 185.478 246.773 180.219C250.028 173.222 253.073 171.733 257.539 173.225C262.087 174.742 263.995 178.761 261.267 186.942C258.314 195.797 254.545 197.483 250 195.967C249.684 195.861 249.303 195.689 248.948 195.572C249.303 194.769 249.803 193.531 250.278 192.106C250.662 190.958 251.017 189.761 251.214 188.903L251.609 189.033V189.036Z" fill="#2D2A26"/>
</svg>
