<svg width="300" height="300" viewBox="0 0 300 300" fill="none" xmlns="http://www.w3.org/2000/svg">
<path d="M150 288.889C226.706 288.889 288.889 226.706 288.889 150C288.889 73.2944 226.706 11.1111 150 11.1111C73.2947 11.1111 11.1113 73.2944 11.1113 150C11.1113 226.706 73.2947 288.889 150 288.889Z" fill="white"/>
<path d="M157.557 121.836C159.457 122.989 161.92 126.25 164.157 126.572C167.545 127.053 166.99 120.492 167.301 118.625C167.495 117.203 167.823 111.511 169.934 111.133C171.465 110.856 172.584 113.631 173.087 114.647C174.215 116.908 175.045 119.306 176.048 121.628C176.409 122.461 176.882 123.242 177.243 124.058C177.873 125.489 178.093 127.144 178.648 128.675C181.759 137.203 192.465 142.281 191.884 152.103C191.412 160.108 187.487 168.147 181.29 173.286C176.454 177.289 169.726 179.358 164.134 175.581C162.629 174.572 161.359 173.242 160.273 171.797C159.668 170.981 159.12 170.108 158.618 169.217C158.19 168.458 157.743 166.628 157.112 166.106C138.898 151.103 126.082 177.072 113.198 167.056C112.468 166.492 112.14 162.464 111.87 161.456C111.409 159.706 110.895 157.975 110.382 156.233C109.532 153.358 108.598 150.439 108.22 147.453C107.457 141.517 110.248 137.386 115.334 134.486C117.345 133.333 119.698 132.939 121.693 131.761C125.434 129.542 128.159 122.561 132.365 121.931C141.237 120.611 138.915 116.842 143.498 114.942C145.837 113.967 148.418 113.033 150.973 112.931C154.126 112.797 156.959 114.353 157.609 117.589C157.87 118.9 157.618 120.489 157.559 121.836" fill="#2D2A26"/>
<path d="M171.295 186.8C175.12 193.486 179.326 182.075 175.501 181.125C172.162 181.958 168.184 180.764 171.295 186.8Z" fill="#2D2A26"/>
<path d="M61.5144 78.2722C66.9783 71.3167 72.8617 69.4389 79.8867 74.9583C86.4228 80.0917 86.695 86.5805 81.0394 93.7805C79.5283 95.7028 78.5422 96.9611 76.9339 98.8639C79.5478 100.861 81.8755 102.575 83.8005 103.864L78.1172 111.1C74.4533 107.994 70.7394 105.022 65.1478 100.631C59.5894 96.2666 55.5783 93.1722 51.9033 90.5111L61.5117 78.2778L61.5144 78.2722ZM74.5117 81.5861C71.7144 79.3889 69.4033 80.175 66.4394 83.95C65.7533 84.825 64.2505 86.8083 63.2144 88.2C65.9394 90.3417 68.5617 92.4 71.045 94.35C71.7589 93.4417 72.9478 92 74.2089 90.3917C77.4755 86.2333 77.5172 83.9472 74.5117 81.5861Z" fill="#2D2A26"/>
<path d="M92.3096 66.275C90.8707 61.9361 92.154 58.9167 95.4151 56.7583C96.4457 56.0611 97.6124 55.4833 98.7068 55.1167C99.4957 56.675 101.321 60.0028 102.482 61.7944C101.362 62.125 100.16 62.725 99.0179 63.4972C95.4374 65.9778 95.0374 68.2361 98.5263 73.3861C100.721 76.6222 103.476 80.6083 105.296 82.9722L98.0846 87.8611C96.0374 84.6833 93.7929 81.375 90.5263 76.5556C87.3346 71.8472 85.1651 68.6472 82.9707 65.5694L88.8929 61.5528C89.8179 63.075 90.804 64.6083 92.0263 66.4111L92.3096 66.2722V66.275Z" fill="#2D2A26"/>
<path d="M126.595 73.5028C118.092 76.0944 111.484 72.2528 108.895 63.7472C106.292 55.2028 110.276 49.0611 118.398 46.5889C126.52 44.1167 133.42 46.9389 136.023 55.4833C138.614 63.9861 135.145 70.8972 126.598 73.5028H126.595ZM120.442 53.3083C116.787 54.4222 114.992 56.9194 116.456 61.725C117.906 66.4861 120.864 67.9556 124.562 66.8278C128.345 65.675 129.87 62.7472 128.445 58.0722C127.02 53.3944 124.142 52.1806 120.442 53.3083Z" fill="#2D2A26"/>
<path d="M169.981 43.5083C169.625 47.2278 169.431 50.5111 169.059 56.7222C168.714 62.4889 168.467 66.6611 168.375 70.3944L160.034 69.8972C160.175 68.2583 160.289 67.1083 160.42 65.6472L160.2 65.5889C158.453 68.7805 155.35 70.0194 150.825 69.75C144.925 69.3972 141.595 66.2611 141.984 59.7389C142.228 55.6583 142.395 53.575 142.55 51.0028C142.748 47.675 142.92 44.7917 142.959 41.9L151.389 42.4028C151.023 46.3 150.648 51.8417 150.259 58.3639C150.045 61.9583 151.25 63.3639 154.534 63.5611C157.862 63.7583 160.634 62.0556 160.912 57.3972C161.434 48.6583 161.562 45.7278 161.681 43.0167L169.978 43.5111L169.981 43.5083Z" fill="#2D2A26"/>
<path d="M209.525 50.75C207.406 55.2055 205.403 59.6167 201.806 67.55C199.014 73.7028 197.045 77.9333 195.292 82.1167L187.723 78.6833L188.989 75.8917C189.284 75.2444 189.617 74.6139 189.97 73.9444L189.703 73.775C187.281 75.9944 183.606 77.2083 179.437 75.3167C173.77 72.7444 171.453 67.2028 175.42 58.4611C179.387 49.7194 185.814 47.7055 191.603 50.3333C195.287 52.0055 197.064 54.325 197.375 57.2972L197.514 57.3111C198.095 55.8167 198.609 54.6833 199.306 53.1472C200.298 50.9611 201.128 49.2389 201.87 47.2833L209.52 50.7555L209.525 50.75ZM195.925 60.9305C194.917 59.4972 193.339 58.2444 191.192 57.2694C187.55 55.6167 184.881 56.5528 182.564 61.6528C180.306 66.6305 181.4 69.275 184.556 70.7083C187.834 72.1972 191.131 71.4944 192.875 67.65L195.923 60.9305H195.925Z" fill="#2D2A26"/>
<path d="M197.628 84.8945C200.903 81.0833 204.467 76.7083 208.339 71.95C212.492 66.85 215.889 62.6806 219.347 58.2195L225.792 63.4667C222.319 67.5195 219.122 71.4472 214.35 77.3056C210.111 82.5083 207.278 85.9917 204.069 90.1417L197.625 84.8945H197.628Z" fill="#2D2A26"/>
<path d="M244.401 96.575C238.048 98.4945 224.765 103.05 220.585 104.158C213.387 106.217 209.121 106.108 204.687 100.267C202.779 97.7528 202.085 95.8806 201.273 93.9306C202.471 93.3028 206.69 91.4389 207.904 90.6833C208.429 92.6278 209.329 94.1778 210.751 96.0528C212.257 98.0361 213.69 98.675 216.193 98.0056C215.01 96.4472 214.098 95.2444 213.515 94.625C215.637 91.1722 223.562 79.1889 226.96 73.5972L232.468 80.8556C231.057 82.5972 227.837 87.325 225.007 91.0944C223.279 93.5222 221.59 95.4167 220.301 96.9528L220.435 97.1306C222.287 96.3389 224.637 95.3917 227.46 94.2556C231.912 92.55 237.44 90.6444 239.293 89.85L244.398 96.5778L244.401 96.575Z" fill="#2D2A26"/>
<path d="M35.2502 172.733C36.3308 172.419 38.6752 171.456 41.6585 170.233C41.3502 167.764 41.0391 165.25 40.803 163.353C40.5835 161.589 40.2697 159.075 39.9697 156.647C36.953 156.172 34.4419 155.767 33.1224 155.619L31.9863 146.489C40.6308 148.639 61.5169 152.711 66.4724 153.664L68.1252 166.939C63.5197 169.169 44.4863 178.167 36.4835 182.611L35.253 172.731L35.2502 172.733ZM46.4169 157.728C46.5919 159.497 46.8169 161.306 46.9835 162.628C47.153 163.994 47.3835 165.847 47.653 167.65C50.8835 166.261 54.2752 164.722 57.0724 163.433C59.6474 162.172 61.6502 161.342 63.0891 160.669C61.528 160.369 59.4224 160.006 56.4419 159.436L46.4197 157.728H46.4169Z" fill="#2D2A26"/>
<path d="M76.1976 202.822C72.8115 204.403 69.8837 205.9 64.3448 208.733C59.2004 211.364 55.4809 213.264 52.217 215.083L48.4143 207.644C49.8976 206.936 50.9476 206.45 52.2726 205.822L52.2115 205.603C48.5754 205.714 45.9337 203.672 43.8698 199.636C41.1781 194.372 42.192 189.911 48.0087 186.939C51.6504 185.078 53.5309 184.167 55.8254 182.992C58.7948 181.475 61.367 180.158 63.8781 178.725L67.7226 186.244C64.1781 187.906 59.2143 190.394 53.3948 193.369C50.1893 195.008 49.5893 196.761 51.0865 199.692C52.6031 202.658 55.4781 204.183 59.6337 202.061C67.4281 198.075 70.0198 196.7 72.4143 195.428L76.1976 202.828V202.822Z" fill="#2D2A26"/>
<path d="M70.0003 223.003C68.7781 224.231 69.0003 225.769 71.9948 228.75C74.5781 231.319 75.867 231.6 76.8698 230.592C77.8087 229.647 77.6503 228.233 74.0253 223.936C68.5087 217.131 69.1309 213.294 72.3281 210.081C76.1837 206.206 80.8698 207.044 87.1059 213.25C93.342 219.456 93.9198 223.919 90.1559 227.7C89.8726 227.983 89.5615 228.236 89.1837 228.55C88.5837 227.828 87.5142 226.7 86.4753 225.664C85.5309 224.722 84.5531 223.814 83.9559 223.281L84.2698 222.967C85.4615 221.769 85.2698 220.386 82.5281 217.658C79.9142 215.056 78.6559 214.808 77.7781 215.689C76.9615 216.508 76.8392 217.764 80.717 222.564C85.8559 228.994 85.8309 232.608 82.2892 236.167C78.6837 239.789 73.9392 239.706 67.417 233.217C60.3615 226.194 60.5392 221.794 64.1448 218.169C64.3948 217.917 64.7392 217.633 65.0226 217.35C65.6226 218.072 66.567 219.139 67.7003 220.267C68.6142 221.175 69.5892 222.086 70.3142 222.681L70.0003 222.994V223.003Z" fill="#2D2A26"/>
<path d="M94.937 243.281C94.1259 244.814 94.7926 246.219 98.5231 248.192C101.745 249.894 103.059 249.783 103.726 248.528C104.348 247.35 103.781 246.044 99.0592 242.994C91.7926 238.1 91.2648 234.25 93.3815 230.242C95.937 225.408 100.659 224.839 108.44 228.95C116.22 233.061 118.076 237.158 115.584 241.875C115.398 242.228 115.17 242.561 114.904 242.972C114.12 242.458 112.765 241.692 111.468 241.006C110.29 240.383 109.09 239.8 108.362 239.464L108.57 239.072C109.359 237.578 108.77 236.314 105.354 234.506C102.093 232.781 100.818 232.911 100.234 234.014C99.6954 235.036 99.9454 236.275 105.056 239.728C111.851 244.375 112.887 247.836 110.54 252.278C108.151 256.797 103.59 258.106 95.4565 253.808C86.6537 249.158 85.537 244.897 87.9259 240.378C88.0926 240.064 88.3398 239.692 88.5259 239.336C89.3092 239.85 90.5259 240.594 91.9398 241.342C93.0787 241.944 94.2787 242.528 95.1454 242.886L94.937 243.281Z" fill="#2D2A26"/>
<path d="M115.284 261.489C116.492 257.394 117.626 253.236 119.04 248.047C120.37 243.158 121.323 239.503 122.365 235.503L130.298 237.664C129.07 241.658 128.101 245.219 126.698 250.364C125.098 256.239 124.187 259.583 123.215 263.65L115.281 261.489H115.284ZM126.903 234.575C122.831 233.464 122.503 232.133 122.853 230.844C123.228 229.472 124.201 228.769 128.19 229.858C132.134 230.933 132.617 232.033 132.245 233.406C131.895 234.692 130.937 235.675 126.906 234.575H126.903Z" fill="#2D2A26"/>
<path d="M145.034 267.142C136.464 266.753 131.52 261.992 131.948 252.536C132.389 242.769 137.956 238.706 146.481 239.092C155.539 239.5 158.398 244.125 158.089 250.961C157.992 253.136 157.831 254.686 157.686 255.925C155.292 255.728 151.253 255.544 147.434 255.372C144.459 255.239 141.525 255.15 139.528 255.058C139.681 259.558 141.481 261.064 145.434 261.242C149.164 261.411 150.281 260.303 150.464 258.222C151.481 258.358 152.678 258.456 154.142 258.522C155.65 258.592 156.809 258.597 157.745 258.553C157.614 264.419 155.023 267.594 145.034 267.142ZM139.767 250.797C143.403 251.094 147.356 251.231 150.642 251.333C150.703 250.981 150.72 250.581 150.742 250.092C150.9 246.583 149.545 245.1 145.903 244.933C142.306 244.769 140.431 245.931 139.764 250.794L139.767 250.797Z" fill="#2D2A26"/>
<path d="M213.114 248.722C210.489 243.175 208.364 238.969 205.378 233.108C204.314 231.056 203.186 228.589 202.139 226.278L201.981 226.358C202.495 228.994 203.011 231.731 203.161 233.856L204.945 252.953L201.631 254.669L186.697 241.883C184.947 240.436 183.053 238.517 181.317 236.711L181.181 236.833C182.425 239.042 183.709 241.231 184.934 243.497C188 249.417 190.347 253.658 193.225 259.022L186.436 262.539C184.386 258.194 182.159 253.894 178.909 247.619C175.556 241.147 173.267 236.728 171.184 232.9L181.128 227.747C183.903 230.014 188.939 234.614 194.431 239.128C195.659 240.144 197.089 241.456 198.459 242.847L198.578 242.786C198.292 240.881 198.047 238.958 197.925 237.369C197.231 230.422 196.514 223.433 196.245 219.919L205.361 215.197C207.286 219.106 209.536 223.547 212.889 230.019C216.139 236.294 218.409 240.575 220.772 244.756L213.117 248.722H213.114Z" fill="#2D2A26"/>
<path d="M238.05 219.631C239.839 222.672 239.098 226.011 236.128 229.494C232.411 233.858 228.906 234.958 224.775 231.444C220.545 227.842 221.231 223.406 226.273 217.483C227.742 215.758 229.25 214.125 230.428 213.083C229.881 212.558 229.306 212.069 228.764 211.608C226.836 209.967 224.975 209.958 222.9 212.394C220.711 214.967 220.77 216.883 223.189 218.772C222.523 219.489 221.686 220.469 220.878 221.417C219.842 222.633 218.803 223.853 218.217 224.814C213.086 220.969 211.795 215.081 217.703 208.144C223.667 201.142 229.061 201.181 233.867 205.272C236.439 207.461 238.214 209.15 240.65 211.225C242.986 213.214 245.939 215.436 247.139 215.875L242.7 221.086C241.75 222.203 241.411 222.325 240.125 221.228C239.55 220.739 238.867 220.1 238.22 219.489L238.042 219.628L238.05 219.631ZM233.245 215.539C232.067 216.578 230.967 217.803 229.842 219.122C227.709 221.625 227.498 223.314 229.056 224.639C230.478 225.85 231.817 225.647 233.72 223.414C235.939 220.808 235.789 217.761 233.248 215.539H233.245Z" fill="#2D2A26"/>
<path d="M231.24 168.714C235.776 170.656 240.262 172.481 248.331 175.764C254.59 178.311 258.895 180.111 263.143 181.694L260.009 189.392L257.17 188.236C256.512 187.969 255.87 187.658 255.187 187.333L255.029 187.606C257.343 189.939 258.698 193.561 256.973 197.8C254.629 203.564 249.181 206.097 240.29 202.481C231.398 198.864 229.134 192.519 231.529 186.633C233.054 182.886 235.301 181.019 238.256 180.592L238.265 180.453C236.748 179.931 235.595 179.464 234.031 178.825C231.809 177.919 230.056 177.158 228.07 176.494L231.237 168.714H231.24ZM241.948 181.9C240.554 182.964 239.365 184.592 238.479 186.772C236.97 190.478 238.012 193.108 243.198 195.219C248.262 197.281 250.859 196.083 252.168 192.872C253.523 189.539 252.693 186.272 248.784 184.681L241.951 181.9H241.948Z" fill="#2D2A26"/>
<path d="M267.004 157.614C266.426 166.172 261.554 171.011 252.109 170.369C242.354 169.708 238.415 164.053 238.993 155.539C239.606 146.492 244.29 143.736 251.12 144.197C253.293 144.344 254.84 144.539 256.076 144.711C255.826 147.1 255.551 151.136 255.295 154.947C255.095 157.919 254.94 160.847 254.806 162.844C259.309 162.792 260.854 161.028 261.12 157.081C261.373 153.356 260.293 152.214 258.215 151.983C258.373 150.969 258.498 149.775 258.598 148.311C258.701 146.803 258.734 145.647 258.709 144.711C264.573 144.975 267.687 147.636 267.012 157.614H267.004ZM250.545 162.514C250.923 158.886 251.148 154.936 251.326 151.653C250.973 151.583 250.576 151.558 250.087 151.525C246.584 151.289 245.068 152.611 244.823 156.247C244.579 159.839 245.698 161.742 250.548 162.514H250.545Z" fill="#2D2A26"/>
</svg>
